<svg width="24" height="24" viewBox="0 0 24 24" fill="none" xmlns="http://www.w3.org/2000/svg">
<path d="M7.87259 11.9502C7.66092 11.9502 7.48425 12.0221 7.34259 12.1657C7.20092 12.3096 7.13009 12.4877 7.13009 12.7002V16.3252C7.13009 16.5377 7.20234 16.7158 7.34684 16.8595C7.4915 17.0033 7.66967 17.0752 7.88134 17.0752C8.09317 17.0752 8.27092 17.0033 8.41459 16.8595C8.55825 16.7158 8.63009 16.5377 8.63009 16.3252V12.7002C8.63009 12.4877 8.55675 12.3096 8.41009 12.1657C8.26359 12.0221 8.08442 11.9502 7.87259 11.9502ZM16.1188 6.57523C15.907 6.57523 15.7303 6.64706 15.5886 6.79073C15.4469 6.93456 15.3761 7.11273 15.3761 7.32523V16.3252C15.3761 16.5377 15.4484 16.7158 15.5931 16.8595C15.7376 17.0033 15.9158 17.0752 16.1276 17.0752C16.3393 17.0752 16.5169 17.0033 16.6606 16.8595C16.8043 16.7158 16.8761 16.5377 16.8761 16.3252V7.32523C16.8761 7.11273 16.8028 6.93456 16.6563 6.79073C16.5097 6.64706 16.3305 6.57523 16.1188 6.57523ZM11.9956 14.1252C11.7819 14.1252 11.6043 14.1971 11.4626 14.3407C11.3209 14.4846 11.2501 14.6627 11.2501 14.8752V16.3252C11.2501 16.5377 11.3224 16.7158 11.4671 16.8595C11.6116 17.0033 11.7908 17.0752 12.0046 17.0752C12.2183 17.0752 12.3959 17.0033 12.5376 16.8595C12.6793 16.7158 12.7501 16.5377 12.7501 16.3252V14.8752C12.7501 14.6627 12.6778 14.4846 12.5331 14.3407C12.3886 14.1971 12.2094 14.1252 11.9956 14.1252ZM4.55384 21.1497C4.09384 21.1497 3.695 20.9808 3.35734 20.643C3.0195 20.3053 2.85059 19.9065 2.85059 19.4465V4.55398C2.85059 4.09231 3.0195 3.69206 3.35734 3.35323C3.695 3.01423 4.09384 2.84473 4.55384 2.84473H19.4463C19.908 2.84473 20.3083 3.01423 20.6471 3.35323C20.9861 3.69206 21.1556 4.09231 21.1556 4.55398V19.4465C21.1556 19.9065 20.9861 20.3053 20.6471 20.643C20.3083 20.9808 19.908 21.1497 19.4463 21.1497H4.55384ZM4.55384 19.4465H19.4463V4.55398H4.55384V19.4465ZM12.0046 11.9502C12.2183 11.9502 12.3959 11.8779 12.5376 11.7332C12.6793 11.5887 12.7501 11.4096 12.7501 11.1957C12.7501 10.9821 12.6778 10.8044 12.5331 10.6627C12.3886 10.5211 12.2094 10.4502 11.9956 10.4502C11.7819 10.4502 11.6043 10.5226 11.4626 10.6672C11.3209 10.8117 11.2501 10.9909 11.2501 11.2047C11.2501 11.4184 11.3224 11.5961 11.4671 11.7377C11.6116 11.8794 11.7908 11.9502 12.0046 11.9502Z" fill="#0D0D0C"/>
</svg>
