<svg width="24" height="24" viewBox="0 0 24 24" fill="none" xmlns="http://www.w3.org/2000/svg">
<path d="M7.11077 17.3076C6.42027 17.8942 5.6986 18.1574 4.94577 18.0971C4.19277 18.0367 3.54069 17.7736 2.98952 17.3076C2.43819 16.8417 2.07002 16.2417 1.88502 15.5073C1.70002 14.7732 1.84252 14.0152 2.31252 13.2333L4.33252 9.85608C3.88652 9.49408 3.53219 9.0465 3.26952 8.51333C3.00685 7.98016 2.87552 7.408 2.87552 6.79683C2.87552 5.69966 3.26335 4.7625 4.03902 3.98533C4.81469 3.20816 5.75002 2.81958 6.84502 2.81958C7.93568 2.81958 8.86994 3.2085 9.64777 3.98633C10.4258 4.76433 10.8148 5.69958 10.8148 6.79208C10.8148 7.88475 10.4258 8.82 9.64777 9.59783C8.86994 10.3758 7.93568 10.7648 6.84502 10.7648C6.67135 10.7648 6.49769 10.7533 6.32402 10.7303C6.15019 10.7073 5.98785 10.6708 5.83702 10.6208L3.76077 14.1098C3.53944 14.4772 3.46985 14.8352 3.55202 15.1841C3.63419 15.5329 3.80744 15.8161 4.07177 16.0336C4.3361 16.2511 4.64494 16.3722 4.99827 16.3971C5.3516 16.4219 5.68693 16.2987 6.00427 16.0273L16.895 6.67333C17.5897 6.08283 18.3176 5.81258 19.0788 5.86258C19.8401 5.91258 20.4954 6.17258 21.0445 6.64258C21.5939 7.11241 21.959 7.71908 22.14 8.46258C22.321 9.20591 22.1785 9.96566 21.7125 10.7418L19.7233 14.1251C20.1694 14.4831 20.5239 14.9282 20.7865 15.4603C21.0492 15.9927 21.1805 16.5649 21.1805 17.1771C21.1805 18.2729 20.789 19.209 20.006 19.9853C19.223 20.7615 18.2816 21.1496 17.1818 21.1496C16.0819 21.1496 15.1493 20.7617 14.3838 19.9861C13.6181 19.2104 13.2353 18.2751 13.2353 17.1801C13.2353 16.0894 13.6181 15.1552 14.3838 14.3773C15.1493 13.5993 16.0823 13.2103 17.1828 13.2103C17.3503 13.2103 17.516 13.2177 17.68 13.2323C17.844 13.247 18.007 13.2773 18.169 13.3233L20.245 9.86533C20.4665 9.50183 20.5341 9.14491 20.4478 8.79458C20.3614 8.44408 20.1861 8.161 19.9218 7.94533C19.6573 7.72966 19.3485 7.60933 18.9955 7.58433C18.6424 7.55933 18.3111 7.6805 18.0018 7.94783L7.11077 17.3076ZM6.84902 9.05558C7.47252 9.05558 8.00543 8.834 8.44777 8.39083C8.89027 7.94783 9.11152 7.41366 9.11152 6.78833C9.11152 6.16283 8.88894 5.62991 8.44377 5.18958C7.99877 4.74908 7.4636 4.52883 6.83827 4.52883C6.21277 4.52883 5.67985 4.75033 5.23952 5.19333C4.79902 5.63616 4.57877 6.17141 4.57877 6.79908C4.57877 7.42258 4.80027 7.9545 5.24327 8.39483C5.6861 8.83533 6.22135 9.05558 6.84902 9.05558ZM17.1863 19.4463C17.8166 19.4463 18.355 19.2248 18.8015 18.7818C19.248 18.339 19.4713 17.8037 19.4713 17.1761C19.4713 16.5526 19.248 16.0197 18.8015 15.5773C18.3552 15.1348 17.8158 14.9136 17.1833 14.9136C16.5549 14.9136 16.0248 15.1362 15.5928 15.5813C15.1606 16.0263 14.9445 16.5615 14.9445 17.1868C14.9445 17.8123 15.1606 18.3452 15.5928 18.7856C16.0248 19.2261 16.5559 19.4463 17.1863 19.4463Z" fill="#0D0D0C"/>
</svg>
