<svg width="24" height="24" viewBox="0 0 24 24" fill="none" xmlns="http://www.w3.org/2000/svg">
<path d="M3.58246 11.2857C3.34212 11.2857 3.14012 11.2039 2.97646 11.0402C2.81279 10.8765 2.73096 10.6745 2.73096 10.4342V3.58246C2.73096 3.34212 2.81279 3.14012 2.97646 2.97646C3.14012 2.81279 3.34212 2.73096 3.58246 2.73096H10.4342C10.6745 2.73096 10.8765 2.81279 11.0402 2.97646C11.2039 3.14012 11.2857 3.34212 11.2857 3.58246V10.4342C11.2857 10.6745 11.2039 10.8765 11.0402 11.0402C10.8765 11.2039 10.6745 11.2857 10.4342 11.2857H3.58246ZM13.5657 11.2857C13.3254 11.2857 13.1234 11.2039 12.9597 11.0402C12.796 10.8765 12.7142 10.6745 12.7142 10.4342V3.58246C12.7142 3.34212 12.796 3.14012 12.9597 2.97646C13.1234 2.81279 13.3254 2.73096 13.5657 2.73096H20.4175C20.6578 2.73096 20.8598 2.81279 21.0235 2.97646C21.1871 3.14012 21.269 3.34212 21.269 3.58246V10.4342C21.269 10.6745 21.1871 10.8765 21.0235 11.0402C20.8598 11.2039 20.6578 11.2857 20.4175 11.2857H13.5657ZM3.58246 21.269C3.34212 21.269 3.14012 21.1871 2.97646 21.0235C2.81279 20.8598 2.73096 20.6578 2.73096 20.4175V13.5657C2.73096 13.3254 2.81279 13.1234 2.97646 12.9597C3.14012 12.796 3.34212 12.7142 3.58246 12.7142H10.4342C10.6745 12.7142 10.8765 12.796 11.0402 12.9597C11.2039 13.1234 11.2857 13.3254 11.2857 13.5657V20.4175C11.2857 20.6578 11.2039 20.8598 11.0402 21.0235C10.8765 21.1871 10.6745 21.269 10.4342 21.269H3.58246ZM16.9902 21.269C16.7445 21.269 16.5409 21.1871 16.3792 21.0235C16.2177 20.8598 16.137 20.6578 16.137 20.4175V17.8462H13.5407C13.3129 17.8462 13.1181 17.763 12.9565 17.5965C12.795 17.43 12.7142 17.2259 12.7142 16.9842C12.7142 16.7425 12.796 16.5409 12.9597 16.3792C13.1234 16.2177 13.3254 16.137 13.5657 16.137H16.137V13.5407C16.137 13.3129 16.2202 13.1181 16.3867 12.9565C16.5532 12.795 16.7573 12.7142 16.999 12.7142C17.2406 12.7142 17.4422 12.796 17.6037 12.9597C17.7654 13.1234 17.8462 13.3254 17.8462 13.5657V16.137H20.4425C20.6703 16.137 20.865 16.2202 21.0267 16.3867C21.1882 16.5532 21.269 16.7553 21.269 16.993C21.269 17.2386 21.1871 17.4422 21.0235 17.6037C20.8598 17.7654 20.6578 17.8462 20.4175 17.8462H17.8462V20.4425C17.8462 20.6703 17.763 20.865 17.5965 21.0267C17.43 21.1882 17.2279 21.269 16.9902 21.269ZM14.4232 4.43421V9.57671H19.5657V4.43421H14.4232ZM4.44021 4.43421V9.57671H9.58246V4.43421H4.44021ZM4.44021 14.4175V19.5597H9.58246V14.4175H4.44021Z" fill="#0D0D0C"/>
</svg>
