<svg width="24" height="24" viewBox="0 0 24 24" fill="none" xmlns="http://www.w3.org/2000/svg">
<path d="M9.78784 16.0002C10.317 16.0002 10.7586 15.819 11.1126 15.4565C11.4666 15.094 11.6436 14.6558 11.6436 14.142C11.6436 13.6283 11.4668 13.1903 11.1133 12.828C10.7598 12.4656 10.3227 12.2845 9.80184 12.2845C9.28117 12.2845 8.83867 12.4647 8.47434 12.8252C8.11 13.1857 7.92784 13.6229 7.92784 14.1367C7.92784 14.6504 8.10925 15.0894 8.47209 15.4537C8.83492 15.8181 9.2735 16.0002 9.78784 16.0002ZM14.2088 16.0002C14.7225 16.0002 15.1615 15.819 15.5258 15.4565C15.8902 15.094 16.0723 14.6558 16.0723 14.142C16.0723 13.6283 15.8911 13.1903 15.5286 12.828C15.1661 12.4656 14.728 12.2845 14.2143 12.2845C13.7005 12.2845 13.2624 12.4647 12.9001 12.8252C12.5378 13.1857 12.3566 13.6229 12.3566 14.1367C12.3566 14.6504 12.5368 15.0894 12.8973 15.4537C13.2578 15.8181 13.695 16.0002 14.2088 16.0002ZM11.9973 11.391C12.5112 11.391 12.9503 11.2142 13.3146 10.8607C13.6788 10.5072 13.8608 10.0701 13.8608 9.54923C13.8608 9.02856 13.6797 8.58606 13.3173 8.22173C12.9548 7.85739 12.5167 7.67523 12.0028 7.67523C11.489 7.67523 11.0499 7.85664 10.6856 8.21948C10.3214 8.58248 10.1393 9.02114 10.1393 9.53548C10.1393 10.0645 10.3205 10.506 10.6828 10.86C11.0453 11.214 11.4835 11.391 11.9973 11.391ZM12.0076 22.1497C10.6043 22.1497 9.28725 21.8841 8.05659 21.3527C6.82592 20.8214 5.74959 20.0947 4.82759 19.1727C3.90559 18.2507 3.17892 17.1741 2.64759 15.9427C2.11625 14.7114 1.85059 13.3933 1.85059 11.9885C1.85059 10.5838 2.11625 9.26548 2.64759 8.03348C3.17892 6.80164 3.90525 5.72881 4.82659 4.81498C5.74792 3.90098 6.82442 3.17748 8.05609 2.64448C9.28775 2.11131 10.6062 1.84473 12.0113 1.84473C13.4163 1.84473 14.7351 2.11114 15.9676 2.64398C17.1999 3.17681 18.2728 3.89989 19.1863 4.81323C20.1 5.72656 20.8233 6.80056 21.3561 8.03523C21.8891 9.26989 22.1556 10.5893 22.1556 11.9935C22.1556 13.3975 21.889 14.7147 21.3558 15.9452C20.8228 17.1759 20.0993 18.2505 19.1853 19.169C18.2715 20.0873 17.1976 20.8137 15.9636 21.3482C14.7296 21.8826 13.4109 22.1497 12.0076 22.1497ZM12.0126 20.4465C14.3549 20.4465 16.3462 19.6236 17.9863 17.9777C19.6263 16.3317 20.4463 14.3351 20.4463 11.9877C20.4463 9.64539 19.6278 7.65414 17.9908 6.01398C16.354 4.37398 14.3561 3.55398 11.9971 3.55398C9.66109 3.55398 7.66984 4.37248 6.02334 6.00948C4.377 7.64631 3.55384 9.64423 3.55384 12.0032C3.55384 14.3392 4.37675 16.3305 6.02259 17.977C7.66859 19.6233 9.66525 20.4465 12.0126 20.4465Z" fill="#0D0D0C"/>
</svg>
