<svg width="122" height="32" viewBox="0 0 122 32" fill="none" xmlns="http://www.w3.org/2000/svg">
<path d="M119.56 20.7854V19.5755C119.56 18.3173 118.81 17.6882 117.31 17.6882C116.584 17.6882 116.027 17.8495 115.64 18.1721C115.253 18.4947 115.059 18.9626 115.059 19.5755V30.6819C115.059 31.0529 114.737 31.2384 114.091 31.2384C113.446 31.2384 113.124 31.0529 113.124 30.6819V19.8175C113.124 18.5754 113.478 17.6317 114.188 16.9865C114.914 16.3251 115.955 15.9944 117.31 15.9944C118.681 15.9944 119.721 16.317 120.431 16.9623C121.141 17.5914 121.496 18.527 121.496 19.7691V20.7854C121.496 21.1564 121.173 21.3419 120.528 21.3419C119.883 21.3419 119.56 21.1564 119.56 20.7854Z" fill="black" stroke="black"/>
<path d="M108.049 19.7691V20.495C108.049 21.3822 107.928 22.092 107.686 22.6243C107.461 23.1405 107.065 23.5277 106.501 23.7858C105.936 24.0439 105.138 24.2213 104.105 24.3181L99.3869 24.7779V27.6573C99.3869 28.9155 100.435 29.5447 102.532 29.5447C103.758 29.5447 104.662 29.4075 105.243 29.1333C105.823 28.8591 106.114 28.4477 106.114 27.8993V26.9798C106.114 26.6088 106.436 26.4233 107.081 26.4233C107.727 26.4233 108.049 26.6088 108.049 26.9798V27.6573C108.049 30.0447 106.275 31.2384 102.726 31.2384C101.032 31.2384 99.7256 30.9077 98.8062 30.2464C97.9028 29.585 97.4511 28.6413 97.4511 27.4153V19.8175C97.4511 18.5754 97.9351 17.6317 98.9029 16.9865C99.887 16.3251 101.282 15.9944 103.089 15.9944C104.783 15.9944 106.033 16.3009 106.84 16.9139C107.646 17.5269 108.049 18.4786 108.049 19.7691ZM99.3869 19.5755V23.0841L103.936 22.6243C104.823 22.5437 105.404 22.3662 105.678 22.092C105.968 21.8017 106.114 21.2693 106.114 20.495V19.5755C106.114 18.9626 105.823 18.4947 105.243 18.1721C104.662 17.8495 103.823 17.6882 102.726 17.6882C101.645 17.6882 100.815 17.8495 100.234 18.1721C99.6692 18.4947 99.3869 18.9626 99.3869 19.5755Z" fill="black" stroke="black"/>
<path d="M77.342 31.4076V27.2941H73.0833V18.9704H68.8247V0H74.9707V16.5023H79.2293V24.826H81.649V16.5023H85.9077V0H92.1021V18.9704H87.795V27.2941H83.5364V31.4076H77.342Z" fill="#00C7BE"/>
<path d="M63.2154 16.7925V28.044C63.2154 28.4796 63.2719 28.8345 63.3848 29.1087C63.5138 29.3829 63.6348 29.6088 63.7478 29.7862C63.8768 29.9475 63.9413 30.0766 63.9413 30.1734C63.9413 30.2863 63.8687 30.4234 63.7236 30.5847C63.5784 30.7299 63.409 30.8509 63.2154 30.9477C63.038 31.0606 62.8686 31.117 62.7073 31.117C62.4815 31.117 62.2556 30.9799 62.0298 30.7057C61.8039 30.4153 61.6184 30.0524 61.4732 29.6168C61.3442 29.1813 61.2797 28.7377 61.2797 28.286V16.7925C61.2797 16.4215 61.6023 16.236 62.2475 16.236C62.8928 16.236 63.2154 16.4215 63.2154 16.7925ZM63.288 13.7437C63.288 14.147 62.9412 14.3486 62.2475 14.3486C61.5378 14.3486 61.1829 14.147 61.1829 13.7437V11.6385C61.1829 11.2353 61.5297 11.0336 62.2234 11.0336C62.9331 11.0336 63.288 11.2353 63.288 11.6385V13.7437Z" fill="black" stroke="black"/>
<path d="M55.9665 12.0741V27.4149C55.9665 28.6409 55.5148 29.5845 54.6115 30.2459C53.7243 30.9073 52.4338 31.238 50.74 31.238C49.0462 31.238 47.7476 30.9073 46.8443 30.2459C45.9409 29.5845 45.4893 28.6409 45.4893 27.4149V20.18C45.4893 18.9379 45.9329 17.9942 46.8201 17.349C47.7235 16.6876 49.022 16.3569 50.7158 16.3569H52.8209C53.1436 16.3569 53.3049 16.6392 53.3049 17.2038C53.3049 17.7684 53.1436 18.0507 52.8209 18.0507H50.7158C48.5219 18.0507 47.425 18.6798 47.425 19.9381V27.6569C47.425 28.2699 47.7073 28.7377 48.2719 29.0603C48.8365 29.3829 49.6592 29.5442 50.74 29.5442C52.9338 29.5442 54.0308 28.9151 54.0308 27.6569V12.0741C54.0308 11.7031 54.3534 11.5175 54.9986 11.5175C55.6439 11.5175 55.9665 11.7031 55.9665 12.0741Z" fill="black" stroke="black"/>
<path d="M40.4004 19.8175V30.4399C40.4004 30.811 40.0778 30.9965 39.4325 30.9965C38.7873 30.9965 38.4647 30.811 38.4647 30.4399V19.5755C38.4647 18.9626 38.1824 18.4947 37.6178 18.1721C37.0532 17.8495 36.2305 17.6882 35.1497 17.6882C32.9558 17.6882 31.8589 18.3173 31.8589 19.5755V30.4399C31.8589 30.811 31.5363 30.9965 30.891 30.9965C30.2458 30.9965 29.9232 30.811 29.9232 30.4399V19.8175C29.9232 18.5754 30.3668 17.6317 31.254 16.9865C32.1573 16.3251 33.4559 15.9944 35.1497 15.9944C36.8435 15.9944 38.142 16.3251 39.0454 16.9865C39.9487 17.6317 40.4004 18.5754 40.4004 19.8175Z" fill="black" stroke="black"/>
<path d="M21.4652 30.8753H18.6342C17.1985 30.8753 16.1661 30.585 15.537 30.0043C14.924 29.4074 14.6175 28.4234 14.6175 27.0522V26.8587C14.6175 25.9714 14.7304 25.2697 14.9562 24.7535C15.1821 24.2212 15.5773 23.826 16.1419 23.5679C16.7065 23.3098 17.4888 23.1323 18.489 23.0356L22.675 22.6242V19.9384C22.675 18.6801 21.5781 18.051 19.3843 18.051H16.0693C15.7467 18.051 15.5853 17.7687 15.5853 17.2041C15.5853 16.6395 15.7467 16.3572 16.0693 16.3572H19.3843C21.078 16.3572 22.3685 16.6879 23.2558 17.3493C24.1591 17.9945 24.6108 18.9382 24.6108 20.1803V27.3184C24.6108 27.9959 24.6672 28.5282 24.7802 28.9154C24.9092 29.2864 25.0302 29.5687 25.1431 29.7623C25.2722 29.9397 25.3367 30.0768 25.3367 30.1736C25.3367 30.2866 25.2641 30.4237 25.1189 30.585C24.9737 30.7302 24.8044 30.8511 24.6108 30.9479C24.4333 31.0609 24.264 31.1173 24.1027 31.1173C23.8446 31.1173 23.6026 30.956 23.3767 30.6334C23.167 30.2946 22.9977 29.8591 22.8686 29.3267C22.7396 28.7783 22.675 28.1895 22.675 27.5604V24.318L18.6342 24.7293C17.7953 24.81 17.2388 24.9955 16.9646 25.2859C16.6903 25.5762 16.5532 26.1005 16.5532 26.8587V27.0522C16.5532 27.8749 16.6984 28.4395 16.9888 28.746C17.2953 29.0364 17.8437 29.1816 18.6342 29.1816H21.4652C21.7878 29.1816 21.9491 29.4639 21.9491 30.0285C21.9491 30.593 21.7878 30.8753 21.4652 30.8753Z" fill="black" stroke="black"/>
<path d="M3.6497 22.4062H5.75483C7.94868 22.4062 9.0456 21.7771 9.0456 20.5189V16.1876C9.0456 15.5746 8.76331 15.1068 8.19871 14.7842C7.63412 14.4616 6.81142 14.3003 5.73063 14.3003C3.53678 14.3003 2.43985 14.9294 2.43985 16.1876V30.4396C2.43985 30.8106 2.11723 30.9961 1.47198 30.9961C0.826727 30.9961 0.504102 30.8106 0.504102 30.4396V16.4296C0.504102 15.1875 0.947711 14.2438 1.83493 13.5986C2.73828 12.9372 4.03685 12.6065 5.73063 12.6065C7.42441 12.6065 8.72298 12.9372 9.62633 13.5986C10.5297 14.2438 10.9814 15.1875 10.9814 16.4296V20.2769C10.9814 21.5029 10.5297 22.4466 9.62633 23.1079C8.73911 23.7693 7.44861 24.1 5.75483 24.1H3.6497C3.32707 24.1 3.16576 23.8177 3.16576 23.2531C3.16576 22.6885 3.32707 22.4062 3.6497 22.4062Z" fill="black" stroke="black"/>
</svg>
