<svg width="140" height="56" viewBox="0 0 140 56" fill="none" xmlns="http://www.w3.org/2000/svg">
<path fill-rule="evenodd" clip-rule="evenodd" d="M35.5519 19.2356L35.803 19.684C36.1192 20.229 36.2862 20.8477 36.2873 21.4777V35.3792C36.2821 36.0087 36.1154 36.6264 35.803 37.173L35.5339 37.6214C35.2267 38.1704 34.7735 38.6235 34.2246 38.9308L22.1885 45.8905C21.6435 46.2066 21.0249 46.3737 20.3948 46.3748H19.8925C19.2616 46.3808 18.6411 46.2132 18.0988 45.8905L6.04488 38.9488C5.50763 38.6263 5.05794 38.1766 4.73545 37.6393L4.48433 37.1909C4.16817 36.6459 4.00113 36.0273 4.00001 35.3972V21.4956C4.00113 20.8656 4.16817 20.2469 4.48433 19.702L4.73545 19.2535C5.04981 18.71 5.50133 18.2584 6.04488 17.9441L18.0808 10.9843C18.6259 10.6682 19.2445 10.5012 19.8746 10.5H20.3948C21.0249 10.5012 21.6435 10.6682 22.1885 10.9843L34.2246 17.9262C34.7712 18.2426 35.228 18.6933 35.5519 19.2356ZM20.3948 14.0874H19.8746L9.38126 20.1503L20.1437 26.3566L30.9061 20.1503L20.3948 14.0874ZM32.4307 35.8278L21.9374 41.8906V29.4779L32.6998 23.2537V35.3793L32.4307 35.8278ZM83.0636 37.0476H79.344V17.4169H83.0636V37.0476ZM49.5002 37.4684H53.6588V30.3394H55.4669L59.8838 37.4684H64.3265L59.4447 29.6162C61.6144 28.9704 63.2417 27.4981 63.2417 24.7085V24.6051C63.2417 20.7824 60.4779 19.0001 56.1126 19.0001H49.5002V37.4684ZM53.6588 27.4981V22.203H56.0093C58.0241 22.203 59.1606 22.8487 59.1606 24.7343V24.8376C59.1606 26.6199 58.1016 27.4981 56.0093 27.4981H53.6588ZM71.0808 37.331C74.7745 37.331 77.0992 35.7038 77.5382 32.785H73.9996C73.7671 33.9215 72.9147 34.6706 71.1842 34.6706C69.1436 34.6706 67.9296 33.3791 67.8263 31.1319H77.5641V30.0987C77.5641 25.2685 74.4645 23.228 70.9775 23.228C67.0514 23.228 64.0292 25.9918 64.0292 30.2537V30.4603C64.0292 34.7739 66.9997 37.331 71.0808 37.331ZM67.8779 28.8331C68.162 26.9216 69.2985 25.811 70.9775 25.811C72.7598 25.811 73.793 26.7925 73.9221 28.8331H67.8779ZM90.1988 37.3322C92.4204 37.3322 93.7889 36.299 94.4863 34.93V37.048H98.2059V23.539H94.4863V31.4688C94.4863 33.4577 93.2464 34.4392 91.6714 34.4392C90.0702 34.4392 89.3203 33.561 89.3203 31.7271V23.539H85.6012V32.2437C85.6012 35.7824 87.5642 37.3322 90.1988 37.3322ZM104.491 37.0469H100.745V23.5379H104.491V25.6043C105.162 24.3386 106.609 23.228 108.624 23.228C110.406 23.228 111.749 23.9771 112.395 25.5785C113.48 23.9512 115.236 23.228 116.941 23.228C119.447 23.228 121.384 24.8036 121.384 28.394V37.0469H117.664V28.8072C117.664 27.0766 116.889 26.3017 115.546 26.3017C114.099 26.3017 112.937 27.2316 112.937 29.0655V37.0469H109.218V28.8072C109.218 27.0766 108.417 26.3017 107.099 26.3017C105.653 26.3017 104.491 27.2316 104.491 29.0655V37.0469ZM130.032 37.331C133.726 37.331 136.051 35.7038 136.489 32.785H132.951C132.718 33.9215 131.866 34.6706 130.135 34.6706C128.095 34.6706 126.881 33.3791 126.778 31.1319H136.516V30.0987C136.516 25.2685 133.416 23.228 129.929 23.228C126.003 23.228 122.98 25.9918 122.98 30.2537V30.4603C122.98 34.7739 125.951 37.331 130.032 37.331ZM126.829 28.8331C127.114 26.9216 128.25 25.811 129.929 25.811C131.711 25.811 132.744 26.7925 132.874 28.8331H126.829Z" fill="#0D0D0C"/>
</svg>
