<svg width="24" height="24" viewBox="0 0 24 24" fill="none" xmlns="http://www.w3.org/2000/svg">
<path d="M14.1127 21.9623C13.8475 22.0076 13.6186 21.9484 13.4259 21.7848C13.2334 21.6213 13.1372 21.3946 13.1372 21.1048C13.1372 20.9054 13.2025 20.7301 13.3332 20.5788C13.4637 20.4276 13.6306 20.3294 13.8339 20.284C14.3353 20.1714 14.8252 20.0169 15.3037 19.8205C15.7822 19.624 16.2408 19.3774 16.6794 19.0808C16.8534 18.9688 17.044 18.9241 17.2512 18.9468C17.4585 18.9694 17.6265 19.0534 17.7552 19.1988C17.9497 19.4059 18.0386 19.6368 18.0219 19.8913C18.0053 20.1458 17.8894 20.3457 17.6742 20.491C17.1234 20.8624 16.5528 21.1681 15.9624 21.4083C15.3721 21.6483 14.7555 21.8329 14.1127 21.9623ZM19.2609 17.6738C19.1118 17.5451 19.0269 17.3761 19.0062 17.1668C18.9855 16.9576 19.0292 16.7641 19.1372 16.5863C19.4212 16.1641 19.6604 15.7189 19.8547 15.2508C20.0492 14.7828 20.2091 14.2834 20.3344 13.7525C20.3758 13.5492 20.4824 13.3813 20.6542 13.2488C20.8262 13.1161 21.0158 13.0498 21.2229 13.0498C21.4883 13.0498 21.7059 13.145 21.8757 13.3355C22.0457 13.5262 22.1017 13.7521 22.0437 14.0133C21.9144 14.6768 21.7204 15.3079 21.4617 15.9065C21.2029 16.5054 20.8981 17.0654 20.5474 17.5868C20.4021 17.8019 20.2032 17.9189 19.9507 17.9375C19.6982 17.9562 19.4683 17.8683 19.2609 17.6738ZM21.2169 10.9498C21.0138 10.9498 20.8262 10.8834 20.6542 10.7508C20.4824 10.6183 20.3738 10.4484 20.3284 10.241C20.2031 9.72685 20.0443 9.23677 19.8519 8.77077C19.6594 8.3046 19.4212 7.8521 19.1372 7.41327C19.0332 7.23543 18.9957 7.04193 19.0247 6.83277C19.0537 6.62343 19.1428 6.4441 19.2919 6.29477C19.4993 6.10427 19.723 6.02252 19.9632 6.04952C20.2034 6.07652 20.3961 6.1956 20.5414 6.40677C20.9089 6.97827 21.2137 7.55085 21.4557 8.12452C21.6977 8.69818 21.8917 9.31677 22.0377 9.98027C22.0997 10.2414 22.0489 10.4684 21.8852 10.661C21.7217 10.8535 21.4989 10.9498 21.2169 10.9498ZM10.0367 21.9683C7.69535 21.4936 5.76235 20.3309 4.23768 18.48C2.71302 16.629 1.95068 14.4689 1.95068 11.9998C1.95068 9.54643 2.71302 7.39635 4.23768 5.54952C5.76235 3.70252 7.69535 2.53577 10.0367 2.04927C10.3019 1.98727 10.5307 2.04127 10.7232 2.21127C10.9159 2.3811 11.0122 2.6026 11.0122 2.87577C11.0122 3.0751 10.9459 3.2556 10.8132 3.41727C10.6807 3.57877 10.5128 3.68218 10.3094 3.72752C8.3786 4.15618 6.78768 5.14485 5.53668 6.69352C4.28552 8.24218 3.65993 10.0109 3.65993 11.9998C3.65993 13.9886 4.28552 15.7574 5.53668 17.306C6.78768 18.8547 8.3786 19.8434 10.3094 20.272C10.5088 20.3174 10.6757 20.4218 10.8102 20.5853C10.9449 20.7489 11.0122 20.9304 11.0122 21.1298C11.0122 21.4029 10.9149 21.6264 10.7202 21.8003C10.5257 21.9743 10.2979 22.0303 10.0367 21.9683ZM16.6984 4.94377C16.2471 4.66777 15.7874 4.43152 15.3192 4.23502C14.851 4.03868 14.3766 3.87785 13.8959 3.75252C13.6926 3.70718 13.5246 3.5996 13.3919 3.42977C13.2594 3.25977 13.1932 3.07118 13.1932 2.86402C13.1932 2.59468 13.2843 2.37827 13.4664 2.21477C13.6488 2.0511 13.8705 2.00027 14.1317 2.06227C14.7452 2.1916 15.3523 2.3731 15.9529 2.60677C16.5536 2.84044 17.1294 3.14302 17.6802 3.51452C17.8914 3.65969 18.0104 3.8586 18.0374 4.11127C18.0644 4.36377 17.9806 4.5936 17.7859 4.80077C17.6534 4.9501 17.4835 5.0351 17.2762 5.05577C17.069 5.07643 16.8764 5.0391 16.6984 4.94377ZM12.0872 17.0373C11.9499 17.0373 11.8167 17.0123 11.6877 16.9623C11.5587 16.9123 11.4442 16.8436 11.3442 16.7563C10.1537 15.6736 9.26493 14.664 8.67793 13.7275C8.09093 12.7909 7.79743 11.9146 7.79743 11.0988C7.79743 9.84144 8.20643 8.79552 9.02443 7.96102C9.84227 7.12635 10.8632 6.70902 12.0872 6.70902C13.307 6.70902 14.3249 7.12635 15.1409 7.96102C15.9569 8.79552 16.3649 9.84144 16.3649 11.0988C16.3649 11.9186 16.0724 12.7959 15.4874 13.7305C14.9024 14.665 14.0147 15.6736 12.8242 16.7563C12.7202 16.8436 12.6057 16.9123 12.4807 16.9623C12.3557 17.0123 12.2245 17.0373 12.0872 17.0373ZM12.0872 12.0548C12.4079 12.0548 12.6795 11.9393 12.9022 11.7083C13.1247 11.4773 13.2359 11.1994 13.2359 10.8748C13.2359 10.5501 13.1247 10.2764 12.9022 10.0538C12.6795 9.8311 12.4079 9.71977 12.0872 9.71977C11.7585 9.71977 11.4829 9.8311 11.2602 10.0538C11.0375 10.2764 10.9262 10.5501 10.9262 10.8748C10.9262 11.1994 11.0375 11.4773 11.2602 11.7083C11.4829 11.9393 11.7585 12.0548 12.0872 12.0548Z" fill="#0D0D0C"/>
</svg>
